<svg xmlns="http://www.w3.org/2000/svg" version="1.1" xmlns:xlink="http://www.w3.org/1999/xlink" xmlns:svgjs="http://svgjs.dev/svgjs" width="1500" height="1500" viewBox="0 0 1500 1500"><rect width="1500" height="1500" fill="#000000"></rect><g transform="matrix(0.6666666666666666,0,0,0.6666666666666666,249.39393939393938,673.8747360767875)"><svg viewBox="0 0 396 60" data-background-color="#000000" preserveAspectRatio="xMidYMid meet" height="227" width="1500" xmlns="http://www.w3.org/2000/svg" xmlns:xlink="http://www.w3.org/1999/xlink"><g id="tight-bounds" transform="matrix(1,0,0,1,0.2400000000000091,0.1818227008331803)"><svg viewBox="0 0 395.52 59.636354598333625" height="59.636354598333625" width="395.52"><g><svg viewBox="0 0 480.31249091432176 72.42133400630914" height="59.636354598333625" width="395.52"><g transform="matrix(1,0,0,1,0,10.009026624605678)"><svg viewBox="0 0 395.52 52.40328075709778" height="52.40328075709778" width="395.52"><g id="textblocktransform"><svg viewBox="0 0 395.52 52.40328075709778" height="52.40328075709778" width="395.52" id="textblock"><g><svg viewBox="0 0 395.52 52.40328075709778" height="52.40328075709778" width="395.52"><g transform="matrix(1,0,0,1,0,0)"><svg width="395.52" viewBox="1.05 -32.9 253.57999999999998 33.6" height="52.40328075709778" data-palette-color="url(#26e37cef-d4a3-4d55-a796-d7db732017f1)"></svg></g></svg></g></svg></g></svg></g><g transform="matrix(1,0,0,1,407.8911569080126,0)"><svg viewBox="0 0 72.42133400630914 72.42133400630914" height="72.42133400630914" width="72.42133400630914"><g data-palette-color="url(#1a4c9e6f-b6eb-4955-b091-4cc2a992f57b)"></g></svg></g></svg></g><defs></defs><mask id="8f088877-546e-41dd-9566-ec4a8918c3a3"><g id="SvgjsG1989"><svg viewBox="0 0 395.52 59.636354598333625" height="59.636354598333625" width="395.52"><g><svg viewBox="0 0 480.31249091432176 72.42133400630914" height="59.636354598333625" width="395.52"><g transform="matrix(1,0,0,1,0,10.009026624605678)"><svg viewBox="0 0 395.52 52.40328075709778" height="52.40328075709778" width="395.52"><g id="SvgjsG1988"><svg viewBox="0 0 395.52 52.40328075709778" height="52.40328075709778" width="395.52" id="SvgjsSvg1987"><g><svg viewBox="0 0 395.52 52.40328075709778" height="52.40328075709778" width="395.52"><g transform="matrix(1,0,0,1,0,0)"><svg width="395.52" viewBox="1.05 -32.9 253.57999999999998 33.6" height="52.40328075709778" data-palette-color="url(#26e37cef-d4a3-4d55-a796-d7db732017f1)"><path d="M15.7-10.9L15.7-10.9 12.15-10.9Q10.75-13 9.22-15.33 7.7-17.65 6.23-20.05 4.75-22.45 3.43-24.78 2.1-27.1 1.05-29.1L1.05-29.1Q1.25-29.65 1.8-30.18 2.35-30.7 3.25-30.7L3.25-30.7Q4.2-30.7 4.73-30.2 5.25-29.7 5.8-28.7L5.8-28.7Q6.45-27.55 7.28-26.13 8.1-24.7 9-23.13 9.9-21.55 10.8-20 11.7-18.45 12.48-17.1 13.25-15.75 13.85-14.75L13.85-14.75 14.05-14.75Q15.8-17.65 17.25-20.25 18.7-22.85 20.05-25.35 21.4-27.85 22.7-30.35L22.7-30.35Q23-30.55 23.45-30.63 23.9-30.7 24.25-30.7L24.25-30.7Q25.2-30.7 25.68-30.25 26.15-29.8 26.15-29L26.15-29Q26.15-28.5 25.38-26.88 24.6-25.25 23.2-22.83 21.8-20.4 19.9-17.35 18-14.3 15.7-10.9ZM11.9-1.6L11.9-12.85 15.95-12.85 15.95-0.1Q15.7 0 15.18 0.13 14.65 0.25 14.1 0.25L14.1 0.25Q13 0.25 12.45-0.2 11.9-0.65 11.9-1.6L11.9-1.6ZM39.5 0.7L39.5 0.7Q34.8 0.7 32.22-1.15 29.65-3 29.65-6.5L29.65-6.5Q29.65-9.75 31.82-11.48 34-13.2 37.85-13.55L37.85-13.55 44.95-14.25 44.95-15.65Q44.95-18.15 43.45-19.3 41.95-20.45 39.4-20.45L39.4-20.45Q37.35-20.45 35.47-19.85 33.6-19.25 32.15-18.5L32.15-18.5Q31.75-18.85 31.42-19.33 31.1-19.8 31.1-20.3L31.1-20.3Q31.1-21.6 32.55-22.3L32.55-22.3Q33.9-23 35.67-23.38 37.45-23.75 39.45-23.75L39.45-23.75Q43.8-23.75 46.35-21.8 48.9-19.85 48.9-15.65L48.9-15.65 48.9-3.8Q48.9-2.7 48.47-2.13 48.05-1.55 47.2-1.05L47.2-1.05Q46-0.4 44 0.15 42 0.7 39.5 0.7ZM39.5-2.6L39.5-2.6Q41.6-2.6 42.97-3.03 44.35-3.45 44.95-3.85L44.95-3.85 44.95-11.1 38.75-10.45Q36.15-10.25 34.9-9.3 33.65-8.35 33.65-6.55L33.65-6.55Q33.65-4.7 35.12-3.65 36.6-2.6 39.5-2.6ZM71.95-3.95L71.95-3.95 71.95-20.75 75.95-20.8 75.95-3.8Q75.95-2.85 75.52-2.27 75.1-1.7 74.2-1.15L74.2-1.15Q73.2-0.5 71.35 0.08 69.5 0.65 67.1 0.65L67.1 0.65Q63.5 0.65 60.75-0.6 58-1.85 56.45-4.53 54.9-7.2 54.9-11.45L54.9-11.45Q54.9-15.8 56.42-18.5 57.95-21.2 60.55-22.48 63.15-23.75 66.25-23.75L66.25-23.75Q68.2-23.75 69.95-23.2 71.7-22.65 72.7-21.85L72.7-21.85 72.7-18.15Q71.75-19.1 70.22-19.78 68.7-20.45 66.65-20.45L66.65-20.45Q64.6-20.45 62.85-19.58 61.1-18.7 60.05-16.7 59-14.7 59-11.35L59-11.35Q59-6.8 61.2-4.73 63.4-2.65 67.05-2.65L67.05-2.65Q68.8-2.65 69.92-3.03 71.05-3.4 71.95-3.95ZM75.95-30.95L75.95-19.8 71.95-19.75 71.95-32.4Q72.2-32.5 72.72-32.63 73.25-32.75 73.8-32.75L73.8-32.75Q74.9-32.75 75.42-32.33 75.95-31.9 75.95-30.95L75.95-30.95ZM83.54-8.45L83.54-8.45 83.54-13 87.54-13 87.54-8.65Q87.54-5.45 89.24-4.05 90.94-2.65 93.94-2.65L93.94-2.65Q95.94-2.65 97.34-3.08 98.74-3.5 99.54-3.95L99.54-3.95 99.54-13 103.54-13 103.54-4.1Q103.54-3.05 103.27-2.43 102.99-1.8 101.94-1.2L101.94-1.2Q100.84-0.55 98.79 0.05 96.74 0.65 93.89 0.65L93.89 0.65Q90.59 0.65 88.27-0.33 85.94-1.3 84.74-3.33 83.54-5.35 83.54-8.45ZM103.54-21.5L103.54-10.4 99.54-10.4 99.54-23Q99.79-23.1 100.32-23.23 100.84-23.35 101.39-23.35L101.39-23.35Q102.49-23.35 103.02-22.93 103.54-22.5 103.54-21.5L103.54-21.5ZM87.54-21.5L87.54-10.4 83.54-10.4 83.54-23Q83.79-23.1 84.32-23.23 84.84-23.35 85.44-23.35L85.44-23.35Q86.49-23.35 87.02-22.93 87.54-22.5 87.54-21.5L87.54-21.5ZM125.59-17.2L125.59-17.2Q124.69-14.05 123.67-10.9 122.64-7.75 121.69-5 120.74-2.25 119.94-0.25L119.94-0.25Q119.54 0 119.04 0.15 118.54 0.3 117.69 0.3L117.69 0.3Q116.89 0.3 116.22 0.03 115.54-0.25 115.29-0.85L115.29-0.85Q114.79-1.85 114.17-3.75 113.54-5.65 112.87-8.1 112.19-10.55 111.49-13.18 110.79-15.8 110.22-18.25 109.64-20.7 109.24-22.6L109.24-22.6Q109.59-22.95 110.12-23.25 110.64-23.55 111.39-23.55L111.39-23.55Q112.34-23.55 112.82-23.03 113.29-22.5 113.49-21.35L113.49-21.35Q113.94-19.25 114.52-16.6 115.09-13.95 115.72-11.35 116.34-8.75 116.87-6.68 117.39-4.6 117.64-3.6L117.64-3.6 117.84-3.6Q118.24-4.8 119.09-7.53 119.94-10.25 121.12-13.75 122.29-17.25 123.49-20.85L123.49-20.85Q123.89-21.1 124.44-21.23 124.99-21.35 125.64-21.35L125.64-21.35Q126.54-21.35 127.14-21.03 127.74-20.7 127.94-20.05L127.94-20.05Q129.14-16.6 130.19-13.28 131.24-9.95 132.04-7.38 132.84-4.8 133.19-3.55L133.19-3.55 133.44-3.55Q134.59-8 135.94-13.1 137.29-18.2 138.14-23.1L138.14-23.1Q138.84-23.55 139.84-23.55L139.84-23.55Q140.69-23.55 141.19-23.15 141.69-22.75 141.69-21.9L141.69-21.9Q141.69-21.35 141.37-19.8 141.04-18.25 140.49-16.15 139.94-14.05 139.27-11.68 138.59-9.3 137.89-7.08 137.19-4.85 136.57-3.05 135.94-1.25 135.49-0.25L135.49-0.25Q135.24-0.05 134.67 0.13 134.09 0.3 133.34 0.3L133.34 0.3Q131.29 0.3 130.94-0.65L130.94-0.65Q130.24-2.45 129.34-5.13 128.44-7.8 127.49-10.93 126.54-14.05 125.59-17.2ZM155.74 0.7L155.74 0.7Q151.04 0.7 148.46-1.15 145.89-3 145.89-6.5L145.89-6.5Q145.89-9.75 148.06-11.48 150.24-13.2 154.09-13.55L154.09-13.55 161.19-14.25 161.19-15.65Q161.19-18.15 159.69-19.3 158.19-20.45 155.64-20.45L155.64-20.45Q153.59-20.45 151.71-19.85 149.84-19.25 148.39-18.5L148.39-18.5Q147.99-18.85 147.66-19.33 147.34-19.8 147.34-20.3L147.34-20.3Q147.34-21.6 148.79-22.3L148.79-22.3Q150.14-23 151.91-23.38 153.69-23.75 155.69-23.75L155.69-23.75Q160.04-23.75 162.59-21.8 165.14-19.85 165.14-15.65L165.14-15.65 165.14-3.8Q165.14-2.7 164.71-2.13 164.29-1.55 163.44-1.05L163.44-1.05Q162.24-0.4 160.24 0.15 158.24 0.7 155.74 0.7ZM155.74-2.6L155.74-2.6Q157.84-2.6 159.21-3.03 160.59-3.45 161.19-3.85L161.19-3.85 161.19-11.1 154.99-10.45Q152.39-10.25 151.14-9.3 149.89-8.35 149.89-6.55L149.89-6.55Q149.89-4.7 151.36-3.65 152.84-2.6 155.74-2.6ZM192.44-15.25L192.44-15.25 192.44-10.15 188.44-10.15 188.44-15.05Q188.44-17.85 186.86-19.15 185.28-20.45 182.63-20.45L182.63-20.45Q180.63-20.45 179.09-19.95 177.53-19.45 176.44-18.8L176.44-18.8 176.44-10.15 172.44-10.15 172.44-18.6Q172.44-19.65 172.86-20.33 173.28-21 174.34-21.65L174.34-21.65Q175.63-22.4 177.78-23.08 179.94-23.75 182.63-23.75L182.63-23.75Q187.19-23.75 189.81-21.68 192.44-19.6 192.44-15.25ZM172.44-1.55L172.44-12.9 176.44-12.9 176.44-0.1Q176.19 0 175.69 0.13 175.19 0.25 174.59 0.25L174.59 0.25Q173.53 0.25 172.99-0.18 172.44-0.6 172.44-1.55L172.44-1.55ZM188.44-1.55L188.44-12.9 192.44-12.9 192.44-0.1Q192.19 0 191.66 0.13 191.13 0.25 190.59 0.25L190.59 0.25Q189.49 0.25 188.96-0.18 188.44-0.6 188.44-1.55L188.44-1.55ZM216.23-6.15L216.23-6.15Q216.23-2.95 213.88-1.15 211.53 0.65 207.08 0.65L207.08 0.65Q203.28 0.65 200.88-0.53 198.48-1.7 198.48-3.1L198.48-3.1Q198.48-3.7 198.81-4.28 199.13-4.85 199.78-5.2L199.78-5.2Q201.13-4.25 202.93-3.45 204.73-2.65 207.03-2.65L207.03-2.65Q212.23-2.65 212.23-6.15L212.23-6.15Q212.23-7.6 211.36-8.53 210.48-9.45 208.78-9.85L208.78-9.85 204.63-10.95Q201.58-11.7 200.18-13.28 198.78-14.85 198.78-17.2L198.78-17.2Q198.78-19.85 200.93-21.8 203.08-23.75 207.48-23.75L207.48-23.75Q209.83-23.75 211.58-23.28 213.33-22.8 214.31-22.03 215.28-21.25 215.28-20.35L215.28-20.35Q215.28-19.7 214.96-19.2 214.63-18.7 214.08-18.45L214.08-18.45Q213.48-18.85 212.56-19.33 211.63-19.8 210.38-20.13 209.13-20.45 207.63-20.45L207.63-20.45Q205.43-20.45 204.08-19.6 202.73-18.75 202.73-17.2L202.73-17.2Q202.73-16.1 203.51-15.28 204.28-14.45 205.98-14.05L205.98-14.05 209.43-13.2Q212.83-12.4 214.53-10.68 216.23-8.95 216.23-6.15ZM242.33-14.65L242.33-9.95 238.33-9.95 238.33-14.55Q238.33-17.55 236.66-19 234.98-20.45 232.33-20.45L232.33-20.45Q230.38-20.45 228.71-19.7 227.03-18.95 225.88-17.9L225.88-17.9 225.13-21.15Q226.33-22 228.31-22.88 230.28-23.75 232.88-23.75L232.88-23.75Q237.03-23.75 239.68-21.5 242.33-19.25 242.33-14.65L242.33-14.65ZM222.38-1.55L222.38-13.2 226.38-13.2 226.38-0.1Q226.13 0 225.63 0.13 225.13 0.25 224.53 0.25L224.53 0.25Q223.48 0.25 222.93-0.18 222.38-0.6 222.38-1.55L222.38-1.55ZM238.33-1.55L238.33-13.15 242.33-13.1 242.33-0.1Q242.08 0 241.56 0.13 241.03 0.25 240.48 0.25L240.48 0.25Q239.38 0.25 238.86-0.18 238.33-0.6 238.33-1.55L238.33-1.55ZM226.38-30.95L226.38-11.25 222.38-11.25 222.38-32.4Q222.63-32.5 223.16-32.63 223.68-32.75 224.28-32.75L224.28-32.75Q225.33-32.75 225.85-32.33 226.38-31.9 226.38-30.95L226.38-30.95ZM249.48-30.4L249.48-30.4Q249.48-31.45 250.23-32.18 250.98-32.9 252.08-32.9L252.08-32.9Q253.23-32.9 253.93-32.18 254.63-31.45 254.63-30.4L254.63-30.4Q254.63-29.35 253.93-28.63 253.23-27.9 252.08-27.9L252.08-27.9Q250.98-27.9 250.23-28.63 249.48-29.35 249.48-30.4ZM250.08-1.55L250.08-13.2 254.08-13.2 254.08-0.1Q253.83 0 253.33 0.13 252.83 0.25 252.23 0.25L252.23 0.25Q251.18 0.25 250.63-0.18 250.08-0.6 250.08-1.55L250.08-1.55ZM254.08-21.5L254.08-11.25 250.08-11.25 250.08-23Q250.33-23.1 250.85-23.23 251.38-23.35 251.98-23.35L251.98-23.35Q253.03-23.35 253.55-22.93 254.08-22.5 254.08-21.5L254.08-21.5Z" opacity="1" transform="matrix(1,0,0,1,0,0)" fill="white" class="wordmark-text-0" id="SvgjsPath1986"></path></svg></g></svg></g></svg></g></svg></g><g transform="matrix(1,0,0,1,407.8911569080126,0)"><svg viewBox="0 0 72.42133400630914 72.42133400630914" height="72.42133400630914" width="72.42133400630914"><g data-palette-color="url(#1a4c9e6f-b6eb-4955-b091-4cc2a992f57b)"><rect width="19.795164628391163" height="72.42133400630914" fill="black" stroke="transparent" x="0" fill-opacity="1"></rect><rect width="19.795164628391163" height="72.42133400630914" fill="black" stroke="transparent" x="24.14044466876971" fill-opacity="0.75"></rect><rect width="19.795164628391163" height="72.42133400630914" fill="black" stroke="transparent" x="48.28088933753942" fill-opacity="0.5"></rect></g></svg></g></svg></g><defs><mask></mask></defs></svg><rect width="395.52" height="59.636354598333625" fill="black" stroke="none" visibility="hidden"></rect></g></mask><linearGradient x1="0.054" x2="0.941" y1="0.5" y2="0.5" id="26e37cef-d4a3-4d55-a796-d7db732017f1"><stop stop-color="#8c8c8c" offset="0"></stop><stop stop-color="#e3e4e5" offset="0.498"></stop><stop stop-color="#8c8c8c" offset="1"></stop></linearGradient><rect width="395.52" height="59.636354598333625" fill="url(#26e37cef-d4a3-4d55-a796-d7db732017f1)" mask="url(#8f088877-546e-41dd-9566-ec4a8918c3a3)" data-fill-palette-color="primary"></rect><mask id="c792de30-674f-4d8e-bd1b-8caa4b388359"><g id="SvgjsG2004"><svg viewBox="0 0 395.52 59.636354598333625" height="59.636354598333625" width="395.52"><g><svg viewBox="0 0 480.31249091432176 72.42133400630914" height="59.636354598333625" width="395.52"><g transform="matrix(1,0,0,1,0,10.009026624605678)"><svg viewBox="0 0 395.52 52.40328075709778" height="52.40328075709778" width="395.52"><g id="SvgjsG2003"><svg viewBox="0 0 395.52 52.40328075709778" height="52.40328075709778" width="395.52" id="SvgjsSvg2002"><g><svg viewBox="0 0 395.52 52.40328075709778" height="52.40328075709778" width="395.52"><g transform="matrix(1,0,0,1,0,0)"><svg width="395.52" viewBox="1.05 -32.9 253.57999999999998 33.6" height="52.40328075709778" data-palette-color="url(#26e37cef-d4a3-4d55-a796-d7db732017f1)"></svg></g></svg></g></svg></g></svg></g><g transform="matrix(1,0,0,1,407.8911569080126,0)"><svg viewBox="0 0 72.42133400630914 72.42133400630914" height="72.42133400630914" width="72.42133400630914"><g data-palette-color="url(#1a4c9e6f-b6eb-4955-b091-4cc2a992f57b)"><rect width="19.795164628391163" height="72.42133400630914" fill="white" stroke="transparent" x="0" fill-opacity="1"></rect><rect width="19.795164628391163" height="72.42133400630914" fill="white" stroke="transparent" x="24.14044466876971" fill-opacity="0.75"></rect><rect width="19.795164628391163" height="72.42133400630914" fill="white" stroke="transparent" x="48.28088933753942" fill-opacity="0.5"></rect></g></svg></g></svg></g><defs><mask></mask></defs><mask><g id="SvgjsG2001"><svg viewBox="0 0 395.52 59.636354598333625" height="59.636354598333625" width="395.52"><g><svg viewBox="0 0 480.31249091432176 72.42133400630914" height="59.636354598333625" width="395.52"><g transform="matrix(1,0,0,1,0,10.009026624605678)"><svg viewBox="0 0 395.52 52.40328075709778" height="52.40328075709778" width="395.52"><g id="SvgjsG2000"><svg viewBox="0 0 395.52 52.40328075709778" height="52.40328075709778" width="395.52" id="SvgjsSvg1999"><g><svg viewBox="0 0 395.52 52.40328075709778" height="52.40328075709778" width="395.52"><g transform="matrix(1,0,0,1,0,0)"><svg width="395.52" viewBox="1.05 -32.9 253.57999999999998 33.6" height="52.40328075709778" data-palette-color="url(#26e37cef-d4a3-4d55-a796-d7db732017f1)"><path d="M15.7-10.9L15.7-10.9 12.15-10.9Q10.75-13 9.22-15.33 7.7-17.65 6.23-20.05 4.75-22.45 3.43-24.78 2.1-27.1 1.05-29.1L1.05-29.1Q1.25-29.65 1.8-30.18 2.35-30.7 3.25-30.7L3.25-30.7Q4.2-30.7 4.73-30.2 5.25-29.7 5.8-28.7L5.8-28.7Q6.45-27.55 7.28-26.13 8.1-24.7 9-23.13 9.9-21.55 10.8-20 11.7-18.45 12.48-17.1 13.25-15.75 13.85-14.75L13.85-14.75 14.05-14.75Q15.8-17.65 17.25-20.25 18.7-22.85 20.05-25.35 21.4-27.85 22.7-30.35L22.7-30.35Q23-30.55 23.45-30.63 23.9-30.7 24.25-30.7L24.25-30.7Q25.2-30.7 25.68-30.25 26.15-29.8 26.15-29L26.15-29Q26.15-28.5 25.38-26.88 24.6-25.25 23.2-22.83 21.8-20.4 19.9-17.35 18-14.3 15.7-10.9ZM11.9-1.6L11.9-12.85 15.95-12.85 15.95-0.1Q15.7 0 15.18 0.13 14.65 0.25 14.1 0.25L14.1 0.25Q13 0.25 12.45-0.2 11.9-0.65 11.9-1.6L11.9-1.6ZM39.5 0.7L39.5 0.7Q34.8 0.7 32.22-1.15 29.65-3 29.65-6.5L29.65-6.5Q29.65-9.75 31.82-11.48 34-13.2 37.85-13.55L37.85-13.55 44.95-14.25 44.95-15.65Q44.95-18.15 43.45-19.3 41.95-20.45 39.4-20.45L39.4-20.45Q37.35-20.45 35.47-19.85 33.6-19.25 32.15-18.5L32.15-18.5Q31.75-18.85 31.42-19.33 31.1-19.8 31.1-20.3L31.1-20.3Q31.1-21.6 32.55-22.3L32.55-22.3Q33.9-23 35.67-23.38 37.45-23.75 39.45-23.75L39.45-23.75Q43.8-23.75 46.35-21.8 48.9-19.85 48.9-15.65L48.9-15.65 48.9-3.8Q48.9-2.7 48.47-2.13 48.05-1.55 47.2-1.05L47.2-1.05Q46-0.4 44 0.15 42 0.7 39.5 0.7ZM39.5-2.6L39.5-2.6Q41.6-2.6 42.97-3.03 44.35-3.45 44.95-3.85L44.95-3.85 44.95-11.1 38.75-10.45Q36.15-10.25 34.9-9.3 33.65-8.35 33.65-6.55L33.65-6.55Q33.65-4.7 35.12-3.65 36.6-2.6 39.5-2.6ZM71.95-3.95L71.95-3.95 71.95-20.75 75.95-20.8 75.95-3.8Q75.95-2.85 75.52-2.27 75.1-1.7 74.2-1.15L74.2-1.15Q73.2-0.5 71.35 0.08 69.5 0.65 67.1 0.65L67.1 0.65Q63.5 0.65 60.75-0.6 58-1.85 56.45-4.53 54.9-7.2 54.9-11.45L54.9-11.45Q54.9-15.8 56.42-18.5 57.95-21.2 60.55-22.48 63.15-23.75 66.25-23.75L66.25-23.75Q68.2-23.75 69.95-23.2 71.7-22.65 72.7-21.85L72.7-21.85 72.7-18.15Q71.75-19.1 70.22-19.78 68.7-20.45 66.65-20.45L66.65-20.45Q64.6-20.45 62.85-19.58 61.1-18.7 60.05-16.7 59-14.7 59-11.35L59-11.35Q59-6.8 61.2-4.73 63.4-2.65 67.05-2.65L67.05-2.65Q68.8-2.65 69.92-3.03 71.05-3.4 71.95-3.95ZM75.95-30.95L75.95-19.8 71.95-19.75 71.95-32.4Q72.2-32.5 72.72-32.63 73.25-32.75 73.8-32.75L73.8-32.75Q74.9-32.75 75.42-32.33 75.95-31.9 75.95-30.95L75.95-30.95ZM83.54-8.45L83.54-8.45 83.54-13 87.54-13 87.54-8.65Q87.54-5.45 89.24-4.05 90.94-2.65 93.94-2.65L93.94-2.65Q95.94-2.65 97.34-3.08 98.74-3.5 99.54-3.95L99.54-3.95 99.54-13 103.54-13 103.54-4.1Q103.54-3.05 103.27-2.43 102.99-1.8 101.94-1.2L101.94-1.2Q100.84-0.55 98.79 0.05 96.74 0.65 93.89 0.65L93.89 0.65Q90.59 0.65 88.27-0.33 85.94-1.3 84.74-3.33 83.54-5.35 83.54-8.45ZM103.54-21.5L103.54-10.4 99.54-10.4 99.54-23Q99.79-23.1 100.32-23.23 100.84-23.35 101.39-23.35L101.39-23.35Q102.49-23.35 103.02-22.93 103.54-22.5 103.54-21.5L103.54-21.5ZM87.54-21.5L87.54-10.4 83.54-10.4 83.54-23Q83.79-23.1 84.32-23.23 84.84-23.35 85.44-23.35L85.44-23.35Q86.49-23.35 87.02-22.93 87.54-22.5 87.54-21.5L87.54-21.5ZM125.59-17.2L125.59-17.2Q124.69-14.05 123.67-10.9 122.64-7.75 121.69-5 120.74-2.25 119.94-0.25L119.94-0.25Q119.54 0 119.04 0.15 118.54 0.3 117.69 0.3L117.69 0.3Q116.89 0.3 116.22 0.03 115.54-0.25 115.29-0.85L115.29-0.85Q114.79-1.85 114.17-3.75 113.54-5.65 112.87-8.1 112.19-10.55 111.49-13.18 110.79-15.8 110.22-18.25 109.64-20.7 109.24-22.6L109.24-22.6Q109.59-22.95 110.12-23.25 110.64-23.55 111.39-23.55L111.39-23.55Q112.34-23.55 112.82-23.03 113.29-22.5 113.49-21.35L113.49-21.35Q113.94-19.25 114.52-16.6 115.09-13.95 115.72-11.35 116.34-8.75 116.87-6.68 117.39-4.6 117.64-3.6L117.64-3.6 117.84-3.6Q118.24-4.8 119.09-7.53 119.94-10.25 121.12-13.75 122.29-17.25 123.49-20.85L123.49-20.85Q123.89-21.1 124.44-21.23 124.99-21.35 125.64-21.35L125.64-21.35Q126.54-21.35 127.14-21.03 127.74-20.7 127.94-20.05L127.94-20.05Q129.14-16.6 130.19-13.28 131.24-9.95 132.04-7.38 132.84-4.8 133.19-3.55L133.19-3.55 133.44-3.55Q134.59-8 135.94-13.1 137.29-18.2 138.14-23.1L138.14-23.1Q138.84-23.55 139.84-23.55L139.84-23.55Q140.69-23.55 141.19-23.15 141.69-22.75 141.69-21.9L141.69-21.9Q141.69-21.35 141.37-19.8 141.04-18.25 140.49-16.15 139.94-14.05 139.27-11.68 138.59-9.3 137.89-7.08 137.19-4.85 136.57-3.05 135.94-1.25 135.49-0.25L135.49-0.25Q135.24-0.05 134.67 0.13 134.09 0.3 133.34 0.3L133.34 0.3Q131.29 0.3 130.94-0.65L130.94-0.65Q130.24-2.45 129.34-5.13 128.44-7.8 127.49-10.93 126.54-14.05 125.59-17.2ZM155.74 0.7L155.74 0.7Q151.04 0.7 148.46-1.15 145.89-3 145.89-6.5L145.89-6.5Q145.89-9.75 148.06-11.48 150.24-13.2 154.09-13.55L154.09-13.55 161.19-14.25 161.19-15.65Q161.19-18.15 159.69-19.3 158.19-20.45 155.64-20.45L155.64-20.45Q153.59-20.45 151.71-19.85 149.84-19.25 148.39-18.5L148.39-18.5Q147.99-18.85 147.66-19.33 147.34-19.8 147.34-20.3L147.34-20.3Q147.34-21.6 148.79-22.3L148.79-22.3Q150.14-23 151.91-23.38 153.69-23.75 155.69-23.75L155.69-23.75Q160.04-23.75 162.59-21.8 165.14-19.85 165.14-15.65L165.14-15.65 165.14-3.8Q165.14-2.7 164.71-2.13 164.29-1.55 163.44-1.05L163.44-1.05Q162.24-0.4 160.24 0.15 158.24 0.7 155.74 0.7ZM155.74-2.6L155.74-2.6Q157.84-2.6 159.21-3.03 160.59-3.45 161.19-3.85L161.19-3.85 161.19-11.1 154.99-10.45Q152.39-10.25 151.14-9.3 149.89-8.35 149.89-6.55L149.89-6.55Q149.89-4.7 151.36-3.65 152.84-2.6 155.74-2.6ZM192.44-15.25L192.44-15.25 192.44-10.15 188.44-10.15 188.44-15.05Q188.44-17.85 186.86-19.15 185.28-20.45 182.63-20.45L182.63-20.45Q180.63-20.45 179.09-19.95 177.53-19.45 176.44-18.8L176.44-18.8 176.44-10.15 172.44-10.15 172.44-18.6Q172.44-19.65 172.86-20.33 173.28-21 174.34-21.65L174.34-21.65Q175.63-22.4 177.78-23.08 179.94-23.75 182.63-23.75L182.63-23.75Q187.19-23.75 189.81-21.68 192.44-19.6 192.44-15.25ZM172.44-1.55L172.44-12.9 176.44-12.9 176.44-0.1Q176.19 0 175.69 0.13 175.19 0.25 174.59 0.25L174.59 0.25Q173.53 0.25 172.99-0.18 172.44-0.6 172.44-1.55L172.44-1.55ZM188.44-1.55L188.44-12.9 192.44-12.9 192.44-0.1Q192.19 0 191.66 0.13 191.13 0.25 190.59 0.25L190.59 0.25Q189.49 0.25 188.96-0.18 188.44-0.6 188.44-1.55L188.44-1.55ZM216.23-6.15L216.23-6.15Q216.23-2.95 213.88-1.15 211.53 0.65 207.08 0.65L207.08 0.65Q203.28 0.65 200.88-0.53 198.48-1.7 198.48-3.1L198.48-3.1Q198.48-3.7 198.81-4.28 199.13-4.85 199.78-5.2L199.78-5.2Q201.13-4.25 202.93-3.45 204.73-2.65 207.03-2.65L207.03-2.65Q212.23-2.65 212.23-6.15L212.23-6.15Q212.23-7.6 211.36-8.53 210.48-9.45 208.78-9.85L208.78-9.85 204.63-10.95Q201.58-11.7 200.18-13.28 198.78-14.85 198.78-17.2L198.78-17.2Q198.78-19.85 200.93-21.8 203.08-23.75 207.48-23.75L207.48-23.75Q209.83-23.75 211.58-23.28 213.33-22.8 214.31-22.03 215.28-21.25 215.28-20.35L215.28-20.35Q215.28-19.7 214.96-19.2 214.63-18.7 214.08-18.45L214.08-18.45Q213.48-18.85 212.56-19.33 211.63-19.8 210.38-20.13 209.13-20.45 207.63-20.45L207.63-20.45Q205.43-20.45 204.08-19.6 202.73-18.75 202.73-17.2L202.73-17.2Q202.73-16.1 203.51-15.28 204.28-14.45 205.98-14.05L205.98-14.05 209.43-13.2Q212.83-12.4 214.53-10.68 216.23-8.95 216.23-6.15ZM242.33-14.65L242.33-9.95 238.33-9.95 238.33-14.55Q238.33-17.55 236.66-19 234.98-20.45 232.33-20.45L232.33-20.45Q230.38-20.45 228.71-19.7 227.03-18.95 225.88-17.9L225.88-17.9 225.13-21.15Q226.33-22 228.31-22.88 230.28-23.75 232.88-23.75L232.88-23.75Q237.03-23.75 239.68-21.5 242.33-19.25 242.33-14.65L242.33-14.65ZM222.38-1.55L222.38-13.2 226.38-13.2 226.38-0.1Q226.13 0 225.63 0.13 225.13 0.25 224.53 0.25L224.53 0.25Q223.48 0.25 222.93-0.18 222.38-0.6 222.38-1.55L222.38-1.55ZM238.33-1.55L238.33-13.15 242.33-13.1 242.33-0.1Q242.08 0 241.56 0.13 241.03 0.25 240.48 0.25L240.48 0.25Q239.38 0.25 238.86-0.18 238.33-0.6 238.33-1.55L238.33-1.55ZM226.38-30.95L226.38-11.25 222.38-11.25 222.38-32.4Q222.63-32.5 223.16-32.63 223.68-32.75 224.28-32.75L224.28-32.75Q225.33-32.75 225.85-32.33 226.38-31.9 226.38-30.95L226.38-30.95ZM249.48-30.4L249.48-30.4Q249.48-31.45 250.23-32.18 250.98-32.9 252.08-32.9L252.08-32.9Q253.23-32.9 253.93-32.18 254.63-31.45 254.63-30.4L254.63-30.4Q254.63-29.35 253.93-28.63 253.23-27.9 252.08-27.9L252.08-27.9Q250.98-27.9 250.23-28.63 249.48-29.35 249.48-30.4ZM250.08-1.55L250.08-13.2 254.08-13.2 254.08-0.1Q253.83 0 253.33 0.13 252.83 0.25 252.23 0.25L252.23 0.25Q251.18 0.25 250.63-0.18 250.08-0.6 250.08-1.55L250.08-1.55ZM254.08-21.5L254.08-11.25 250.08-11.25 250.08-23Q250.33-23.1 250.85-23.23 251.38-23.35 251.98-23.35L251.98-23.35Q253.03-23.35 253.55-22.93 254.08-22.5 254.08-21.5L254.08-21.5Z" opacity="1" transform="matrix(1,0,0,1,0,0)" fill="black" class="wordmark-text-0" id="SvgjsPath1998"></path></svg></g></svg></g></svg></g></svg></g><g transform="matrix(1,0,0,1,407.8911569080126,0)"><svg viewBox="0 0 72.42133400630914 72.42133400630914" height="72.42133400630914" width="72.42133400630914"><g data-palette-color="url(#1a4c9e6f-b6eb-4955-b091-4cc2a992f57b)"><rect width="19.795164628391163" height="72.42133400630914" fill="black" stroke="transparent" x="0" fill-opacity="1"></rect><rect width="19.795164628391163" height="72.42133400630914" fill="black" stroke="transparent" x="24.14044466876971" fill-opacity="0.75"></rect><rect width="19.795164628391163" height="72.42133400630914" fill="black" stroke="transparent" x="48.28088933753942" fill-opacity="0.5"></rect></g></svg></g></svg></g><defs><mask></mask></defs></svg><rect width="395.52" height="59.636354598333625" fill="black" stroke="none" visibility="hidden"></rect></g></mask></svg><rect width="395.52" height="59.636354598333625" fill="black" stroke="none" visibility="hidden"></rect></g></mask><linearGradient x1="0.054" x2="0.941" y1="0.5" y2="0.5" id="1a4c9e6f-b6eb-4955-b091-4cc2a992f57b"><stop stop-color="#8c8c8c" offset="0"></stop><stop stop-color="#e3e4e5" offset="0.498"></stop><stop stop-color="#8c8c8c" offset="1"></stop></linearGradient><rect width="395.52" height="59.636354598333625" fill="url(#1a4c9e6f-b6eb-4955-b091-4cc2a992f57b)" mask="url(#c792de30-674f-4d8e-bd1b-8caa4b388359)" data-fill-palette-color="accent"></rect></svg><rect width="395.52" height="59.636354598333625" fill="none" stroke="none" visibility="hidden"></rect></g></svg></g></svg>